<?xml version="1.0" encoding="utf-8"?>
<svg viewBox="0 0 500 500" xmlns="http://www.w3.org/2000/svg">
  <path fill="rgb(255,0,0)" stroke="rgb(255,0,0)" stroke-width="0" d="M 228.929 15.699 C 249.345 14.136 288.757 14.669 311.302 16.275 C 328.882 17.527 344.621 19.388 355.081 22.611 C 362.366 24.856 368.119 28.033 370.922 30.964 C 372.787 32.915 371.001 35.031 373.226 37.012 C 377.234 40.581 393.011 43.526 399.435 47.381 C 404.33 50.318 407.864 54.606 410.092 56.886 C 411.444 58.269 411.292 58.577 412.684 60.054 C 415.152 62.67 420.484 66.742 425.069 71.863 C 431.02 78.508 439.427 87.893 445.23 97.784 C 451.478 108.432 456.443 119.606 460.783 134.075 C 466.066 151.683 471.128 180.067 472.88 197.439 C 474.227 210.79 473.256 219.603 472.88 230.849 C 472.499 242.258 472.403 254.074 470.576 265.411 C 468.752 276.731 465.983 287.611 461.935 298.821 C 457.666 310.645 451.821 323.821 445.23 334.535 C 438.956 344.735 431.115 354.414 423.629 361.897 C 416.944 368.579 410.155 373.393 402.892 378.026 C 395.743 382.586 389.307 385.926 380.426 389.547 C 369.762 393.895 356.264 398.286 342.408 401.644 C 327.139 405.343 309.862 408.714 292.293 410.284 C 273.678 411.947 248.365 411.263 233.537 410.86 C 223.129 410.577 216.812 410.174 209.343 409.132 C 202.508 408.178 197.789 407.346 190.334 405.1 C 180.687 402.194 167.184 397.577 155.772 391.851 C 143.746 385.817 131.532 378.066 120.058 369.386 C 108.171 360.392 94.532 347.646 85.783 338.568 C 78.982 331.51 74.661 326.316 70.23 319.558 C 65.843 312.867 62.077 305.592 59.286 298.245 C 56.531 290.993 54.502 283.595 53.525 275.78 C 52.513 267.682 52.336 260.391 53.525 250.434 C 55.043 237.723 58.377 220.897 63.894 204.927 C 70.11 186.935 79.904 167.647 90.392 147.899 C 101.855 126.316 116.754 100.085 130.714 80.503 C 143.256 62.911 157.244 44.603 169.597 34.708 C 178.971 27.199 186.97 24.617 196.671 21.459 C 206.701 18.194 214.808 16.78 228.929 15.699 Z M 235.553 45.653 C 225.221 46.335 219.69 46.875 211.935 49.109 C 203.937 51.414 196.265 53.302 188.318 59.478 C 178.073 67.439 168.012 81.629 157.212 96.92 C 144.03 115.583 126.763 144.868 115.737 165.469 C 106.458 182.806 99.27 197.035 93.848 212.704 C 88.708 227.557 84.605 245.565 83.479 257.058 C 82.675 265.264 83.466 270.684 84.631 276.644 C 85.701 282.116 86.794 285.932 89.816 291.621 C 93.848 299.213 100.968 309.526 108.825 318.118 C 117.522 327.63 129.677 337.762 140.507 345.768 C 150.824 353.395 161.107 360.063 172.189 365.353 C 183.196 370.607 195.227 374.862 206.751 377.45 C 217.884 379.95 227.857 380.371 240.161 380.906 C 254.195 381.517 271.255 381.75 286.82 380.33 C 302.552 378.896 319.683 375.765 334.055 372.266 C 347.089 369.092 358.485 366.085 369.77 360.745 C 381.153 355.359 394.022 346.862 402.028 340.008 C 408.349 334.595 411.191 331.187 415.853 323.879 C 422.094 314.094 430.716 295.826 434.862 284.132 C 438.218 274.664 439.284 268.048 440.622 258.786 C 442.113 248.467 442.582 234.45 442.926 224.8 C 443.205 216.976 443.653 212.922 442.926 204.639 C 441.945 193.465 436.454 166.581 436.014 162.588 C 435.91 161.646 436.213 162.354 436.014 161.436 C 435.17 157.553 428.764 132.851 422.765 121.114 C 417.21 110.244 407.758 99.651 402.028 92.888 C 397.982 88.114 394.63 85.49 391.659 82.519 C 389.219 80.08 388.526 78.388 385.323 76.183 C 380.595 72.929 372.655 68.493 364.009 65.814 C 353.445 62.541 332.446 63.801 325.415 59.478 C 320.939 56.726 322.91 50.909 319.078 48.533 C 314.193 45.504 306.177 46.224 296.037 45.653 C 281.166 44.816 250.54 44.664 235.553 45.653 Z M 151.164 164.892 C 154.317 164.197 159.697 163.813 163.26 164.892 C 166.664 165.924 170.303 168 172.189 170.941 C 174.214 174.099 175.243 179.922 174.493 183.614 C 173.794 187.052 170.584 190.684 168.445 192.542 C 166.79 193.979 165.52 194.405 163.26 194.846 C 160.202 195.444 154.727 195.926 151.164 194.846 C 147.76 193.815 144.121 191.739 142.235 188.798 C 140.21 185.64 139.234 179.75 139.931 176.125 C 140.56 172.852 143.327 169.665 145.403 167.773 C 147.146 166.185 148.713 165.433 151.164 164.892 Z M 351.624 144.731 C 354.88 144.017 360.168 143.566 364.297 144.731 C 368.728 145.982 374.745 148.929 377.258 152.508 C 379.616 155.864 380.313 161.489 379.562 165.18 C 378.863 168.619 376.541 172.215 373.514 174.109 C 370.152 176.212 363.828 176.522 359.689 176.413 C 356.064 176.318 352.773 175.457 349.896 174.109 C 347.14 172.817 344.291 171.317 342.696 168.637 C 340.859 165.549 339.695 159.588 340.392 155.964 C 341.021 152.69 343.788 149.504 345.864 147.611 C 347.606 146.023 349.141 145.276 351.624 144.731 Z M 322.823 172.957 C 325.549 172.429 329.432 172.226 332.615 173.533 C 336.275 175.036 339.938 178.022 343.272 182.462 C 347.688 188.343 353.385 199.118 355.369 207.807 C 357.29 216.222 356.643 226.509 355.369 233.729 C 354.317 239.689 352.324 244.38 349.608 248.706 C 346.988 252.879 344.884 255.81 339.528 259.363 C 331.424 264.738 311.405 272.471 301.509 275.492 C 294.579 277.607 291.392 277.839 284.804 278.372 C 276.595 279.035 264.662 279.619 255.426 278.372 C 246.669 277.189 237.761 275.152 230.657 271.459 C 223.972 267.985 218.257 262.766 213.664 257.346 C 209.193 252.071 205.229 246.021 203.295 239.489 C 201.314 232.8 200.838 223.776 202.143 217.6 C 203.274 212.246 206.758 206.727 209.343 204.063 C 211.171 202.18 212.975 201.677 215.104 201.183 C 217.365 200.658 220.061 200.375 222.592 201.183 C 225.521 202.117 229.623 204.163 231.521 207.231 C 233.662 210.693 233.991 218.045 233.825 221.632 C 233.709 224.149 231.636 225.024 232.097 227.392 C 232.781 230.914 237.403 237.676 241.025 240.929 C 244.329 243.897 247.615 245.412 252.546 246.69 C 258.958 248.351 268.581 249.198 277.316 248.418 C 286.915 247.56 299.86 244.028 307.846 240.929 C 314.075 238.512 319.709 235.597 322.535 232.577 C 324.575 230.396 324.898 228.352 325.415 225.664 C 326.016 222.536 326.739 218.973 325.415 214.72 C 323.57 208.791 314.11 199.001 312.166 193.406 C 310.863 189.656 310.817 187.078 311.59 184.19 C 312.387 181.21 314.986 177.73 317.062 175.837 C 318.805 174.249 320.518 173.403 322.823 172.957 Z" style="fill: rgb(166, 209, 48); stroke: rgb(129, 151, 57); stroke-width: 2px;"/>
</svg>